<svg version="1.1" id="Layer_1" xmlns="http://www.w3.org/2000/svg" xmlns:xlink="http://www.w3.org/1999/xlink" x="0px" y="0px" width="100px" height="100px" viewBox="0 0 50 50" enable-background="new 0 0 50 50" xml:space="preserve">
<g>
	<g>
		<path d="M0,35c0-6.668,0-13.333,0-20c0.081-0.571,0.198-1.138,0.232-1.711C0.613,6.836,4.709,1.956,10.962,0.603
			C12.29,0.315,13.652,0.195,15,0c6.667,0,13.332,0,20,0c0.568,0.081,1.135,0.2,1.707,0.234c6.367,0.374,11.113,4.29,12.6,10.503
			c0.352,1.475,0.469,3.008,0.693,4.512c0,6.418,0,12.835,0,19.251c-0.086,0.736-0.207,1.469-0.249,2.209
			c-0.366,6.343-4.29,11.118-10.474,12.588C37.717,49.666,36.094,49.773,34.5,50c-6.416,0-12.833,0-19.251,0
			c-0.652-0.086-1.301-0.21-1.958-0.246C6.812,49.38,1.875,45.203,0.574,38.921C0.308,37.629,0.188,36.309,0,35z M24.854,45.273
			c0-0.005,0-0.008,0-0.012c3.706,0,7.414,0.085,11.118-0.027c2.741-0.08,5.231-0.952,7.09-3.146
			c1.526-1.805,2.163-3.961,2.183-6.243c0.068-7.161,0.139-14.326,0-21.487c-0.115-5.999-3.56-9.431-9.556-9.612
			C29.57,4.561,23.445,4.551,17.322,4.561c-1.865,0.002-3.765,0.144-5.586,0.522c-4.219,0.876-6.877,4.158-6.965,8.872
			c-0.137,7.285-0.161,14.575-0.01,21.86c0.122,5.825,3.643,9.235,9.475,9.434C17.771,45.371,21.313,45.273,24.854,45.273z"></path>
		<path fill-rule="evenodd" clip-rule="evenodd" d="M12.173,24.934c0.042-7.166,5.757-12.815,12.91-12.761
			c7.163,0.054,12.803,5.791,12.729,12.942c-0.073,7.114-5.742,12.719-12.847,12.698C17.803,37.793,12.129,32.082,12.173,24.934z
			 M24.951,33.281c4.656,0.015,8.328-3.635,8.33-8.276c0.002-4.597-3.615-8.267-8.181-8.296c-4.675-0.032-8.367,3.584-8.391,8.21
			C16.685,29.582,20.317,33.267,24.951,33.281z"></path>
		<path fill-rule="evenodd" clip-rule="evenodd" d="M41.316,11.606c0.02,1.675-1.289,3.044-2.938,3.071
			c-1.616,0.029-3.042-1.35-3.078-2.974c-0.037-1.633,1.312-3.003,2.982-3.025C40.005,8.657,41.297,9.902,41.316,11.606z"></path>
	</g>
</g>
</svg>