<?xml version="1.0" encoding="utf-8"?>
<!-- Generator: Adobe Illustrator 24.0.1, SVG Export Plug-In . SVG Version: 6.00 Build 0)  -->
<svg version="1.1" id="Apple_Podcast" xmlns="http://www.w3.org/2000/svg" xmlns:xlink="http://www.w3.org/1999/xlink" x="0px"
	 y="0px" viewBox="0 0 80.9 89" style="enable-background:new 0 0 80.9 89;" xml:space="preserve">
<style type="text/css">
	.abcd1{fill:#73aab7;}
</style>
<g id="US" transform="translate(44.924 0)">
	<g id="XMLID_632_" transform="translate(0 0)">
		<g id="XMLID_648_" transform="translate(0 0)">
			<g id="Group_131">
				<path id="Path_318" class="abcd1" d="M3.9,53.4c-1.7-1.8-4.8-3-8.3-3s-6.6,1.2-8.3,3c-0.9,0.9-1.4,2.1-1.5,3.3
					c-0.2,2.9-0.2,5.8,0.2,8.7c0.3,3.5,0.9,8.2,1.6,13c0.3,2.2,0.8,4.4,1.3,6.6c0.6,2.1,3,4,6.7,4s6.1-1.9,6.7-4
					c0.6-2.2,1-4.3,1.3-6.6c0.7-4.8,1.3-9.5,1.6-13c0.4-2.9,0.4-5.8,0.2-8.7C5.3,55.4,4.8,54.3,3.9,53.4z M-13.9,37.2
					c0,5.2,4.2,9.4,9.4,9.4s9.4-4.2,9.4-9.4s-4.2-9.4-9.4-9.4l0,0C-9.6,27.7-13.9,32-13.9,37.2L-13.9,37.2z M-4.6,0
					C-26.9,0.1-45,18.2-44.9,40.6c0,17.1,10.9,32.4,27.1,38c0.3,0.1,0.6,0,0.7-0.3c0-0.1,0-0.2,0-0.3c-0.2-1.4-0.4-2.8-0.6-4.1
					c-0.1-0.5-0.4-0.9-0.8-1.1C-36.4,65-44.6,44.2-36.8,26.4S-8.2,0.4,9.6,8.1s26,28.6,18.3,46.4c-3.6,8.2-10.1,14.7-18.3,18.3
					c-0.4,0.2-0.8,0.6-0.8,1.1c-0.2,1.4-0.4,2.8-0.6,4.1c0,0.3,0.2,0.6,0.5,0.6c0.1,0,0.2,0,0.3,0c21-7.4,32.1-30.5,24.7-51.5
					C28,10.8,12.7,0-4.6,0L-4.6,0z M-5.3,18.6c12.1-0.5,22.3,8.9,22.8,21c0.3,6.4-2.3,12.5-6.9,16.9c-0.4,0.3-0.6,0.8-0.5,1.3
					c0.1,1.5,0.1,3.1,0,4.6c0,0.3,0.2,0.5,0.5,0.6c0.1,0,0.2,0,0.3-0.1c12.4-8.4,15.6-25.3,7.2-37.7S-7.3,9.6-19.7,18.1
					s-15.6,25.2-7.1,37.6c1.9,2.8,4.3,5.2,7.2,7.2c0.2,0.2,0.6,0.1,0.7-0.1c0.1-0.1,0.1-0.2,0.1-0.3c-0.1-1.5-0.1-3.1,0-4.6
					c0-0.5-0.2-1-0.5-1.3c-8.8-8.3-9.3-22.1-1-31C-16.5,21.3-11.1,18.8-5.3,18.6L-5.3,18.6z"/>
			</g>
		</g>
	</g>
</g>
</svg>
