<svg version="1.1" id="Spotify" xmlns="http://www.w3.org/2000/svg" xmlns:xlink="http://www.w3.org/1999/xlink" x="0px" y="0px"
	 viewBox="0 0 89.2 89.2" style="enable-background:new 0 0 89.2 89.2;" xml:space="preserve">
<style type="text/css">
	.st90210{fill-rule:evenodd;clip-rule:evenodd;fill:#73aab7;}
</style>
<path id="iconmonstr-spotify-5" class="st90210" d="M44.6,0C20,0,0,20,0,44.6s20,44.6,44.6,44.6s44.6-20,44.6-44.6l0,0
	C89.2,20,69.2,0,44.6,0z M65.1,64.3c-0.8,1.3-2.5,1.7-3.8,0.9c0,0,0,0,0,0c-10.5-6.4-23.7-7.8-39.2-4.3c-1.5,0.3-3-0.6-3.3-2.2
	c-0.3-1.5,0.6-2.9,2.1-3.3c17-3.9,31.6-2.2,43.3,5C65.4,61.3,65.9,63,65.1,64.3z M70.5,52.2c-1,1.6-3.1,2.2-4.8,1.1c0,0,0,0,0,0
	c-12-7.4-30.3-9.5-44.4-5.2c-1.8,0.6-3.8-0.5-4.3-2.3s0.5-3.8,2.3-4.3c0,0,0,0,0,0c16.2-4.9,36.3-2.5,50.1,5.9
	C71,48.4,71.5,50.5,70.5,52.2C70.5,52.2,70.5,52.2,70.5,52.2L70.5,52.2z M71,39.5c-14.4-8.5-38.1-9.3-51.8-5.2
	c-2.2,0.7-4.5-0.6-5.2-2.8s0.6-4.5,2.8-5.2c15.8-4.8,41.9-3.9,58.5,6c2,1.2,2.6,3.7,1.5,5.7S73,40.7,71,39.5L71,39.5z"/>
</svg>
