<svg version="1.1" id="Youtube" xmlns="http://www.w3.org/2000/svg" xmlns:xlink="http://www.w3.org/1999/xlink" x="0px" y="0px"
	 viewBox="0 0 103.5 72.5" style="enable-background:new 0 0 103.5 72.5;" xml:space="preserve">
<style type="text/css">
	.st01123212{fill-rule:evenodd;clip-rule:evenodd;fill:#73aab7;}
</style>
<path id="Path_311" class="st01123212" d="M101.3,11.4c-1.2-4.5-4.7-8-9.2-9.2C84.2,0,51.8,0,51.8,0S19.4,0,11.2,2.2
	c-4.5,1.2-7.9,4.7-9.2,9.2C0,19.5,0,36.2,0,36.2s0,16.9,2.1,24.9c1.2,4.5,4.7,7.9,9.2,9.2c8.1,2.2,40.5,2.2,40.5,2.2
	s32.4,0,40.4-2.1c4.5-1.2,8-4.7,9.2-9.2c2.2-8.1,2.2-24.9,2.2-24.9S103.5,19.5,101.3,11.4z M41.5,51.8l26.9-15.5L41.5,20.7V51.8z"/>
</svg>
