<?xml version="1.0" encoding="utf-8"?>
<!-- Generator: Adobe Illustrator 19.0.1, SVG Export Plug-In . SVG Version: 6.00 Build 0)  -->
<svg version="1.1" id="Layer_1" xmlns="http://www.w3.org/2000/svg" xmlns:xlink="http://www.w3.org/1999/xlink" x="0px" y="0px"
	 viewBox="0 14.8 100 70.1" style="enable-background:new 0 14.8 100 70.1;" xml:space="preserve">
<g id="_x30_e0YKS.tif">
	<g>
		<path d="M0,55.1c0-3.4,0-6.9,0-10.3c0-0.3,0.1-0.5,0.1-0.8c0-1.3,0-2.5,0.1-3.8c0.2-2.5,0.4-5.1,0.6-7.6c0.2-2.7,0.7-5.3,1.5-7.8
			c1.2-3.7,3.5-6.4,7-7.9c2-0.9,4-1.1,6.1-1.2c5.4-0.3,10.7-0.5,16.1-0.7c3.4-0.1,6.8-0.2,10.1-0.2c7.7,0,15.4,0,23.1,0.1
			c3.5,0,7,0.2,10.4,0.3c3.8,0.2,7.5,0.3,11.3,0.7c5.4,0.5,9.3,3.3,11.2,8.5c1.1,3.2,1.6,6.5,1.8,9.8c0.2,3.1,0.4,6.3,0.5,9.4
			c0.1,4.5,0.1,9,0,13.5c-0.1,3.3-0.4,6.6-0.6,9.8c-0.2,2.7-0.7,5.3-1.5,7.8c-1.4,4.2-4.1,7.1-8.4,8.4c-1.8,0.6-3.7,0.7-5.6,0.8
			c-3.3,0.2-6.6,0.4-9.8,0.5c-3,0.1-5.9,0.2-8.9,0.3c-3.2,0.1-6.4,0.2-9.6,0.2c-6.6,0-13.1-0.1-19.7-0.2c-2.8,0-5.6-0.1-8.5-0.2
			c-2.8-0.1-5.6-0.2-8.4-0.4c-2.6-0.1-5.1-0.4-7.6-1c-4.3-1-7.3-3.5-8.8-7.7c-0.9-2.5-1.5-5-1.7-7.7C0.5,63.9,0.3,60,0,56
			C0.1,55.8,0,55.5,0,55.1z M66.8,48.8c-9.1-4.7-18-9.4-27-14.1c0,9.4,0,18.7,0,28.1C48.7,58.2,57.7,53.6,66.8,48.8z"/>
	</g>
</g>
</svg>
